<svg id="Logo" xmlns="http://www.w3.org/2000/svg" viewBox="0 0 277.398 144"><defs><style>.cls-1{fill:#19469d;}.cls-2{fill:#f5821f;}</style></defs><path class="cls-1" d="M20.991,69.484q1.05,9.443,7.345,14.693a23,23,0,0,0,15.22,5.248,25.05,25.05,0,0,0,13.207-3.238,36.606,36.606,0,0,0,9.358-8.133L81.164,89.425a42.627,42.627,0,0,1-16.442,12.943,48.465,48.465,0,0,1-19.067,3.849,50.408,50.408,0,0,1-17.844-3.149,42.8,42.8,0,0,1-14.518-8.922,42.288,42.288,0,0,1-9.708-13.9A44.4,44.4,0,0,1,0,62.136,44.4,44.4,0,0,1,3.585,44.031a42.306,42.306,0,0,1,9.708-13.907A42.766,42.766,0,0,1,27.811,21.2a50.408,50.408,0,0,1,17.844-3.149,40.8,40.8,0,0,1,16,3.061A34.336,34.336,0,0,1,74.08,29.949a40.854,40.854,0,0,1,8.045,14.257,60.465,60.465,0,0,1,2.888,19.5v5.773ZM64.022,53.739q-.176-9.447-5.773-14.693T42.681,33.8q-9.447,0-14.956,5.423T20.991,53.739Z" transform="translate(0 0)"/><path class="cls-1" d="M186.786,20.155h19.943V32.748h.35a26.242,26.242,0,0,1,12.244-11.282,40.523,40.523,0,0,1,16.617-3.411,42.294,42.294,0,0,1,17.317,3.411,38.824,38.824,0,0,1,13.12,9.358A40.111,40.111,0,0,1,274.6,44.817a52.424,52.424,0,0,1,2.8,17.319,49.551,49.551,0,0,1-2.974,17.317,43.052,43.052,0,0,1-8.309,13.993,38.343,38.343,0,0,1-12.857,9.361,39.367,39.367,0,0,1-16.442,3.41,40.834,40.834,0,0,1-10.408-1.225,35.733,35.733,0,0,1-8.134-3.149,31.965,31.965,0,0,1-5.948-4.11,29.771,29.771,0,0,1-4.024-4.287h-.524V144H186.786Zm69.62,41.981a27.33,27.33,0,0,0-1.661-9.445,23.782,23.782,0,0,0-4.9-8.049,24.815,24.815,0,0,0-36.209,0,23.7,23.7,0,0,0-4.9,8.049,27.684,27.684,0,0,0,0,18.89,23.628,23.628,0,0,0,4.9,8.047,24.81,24.81,0,0,0,36.209,0,23.706,23.706,0,0,0,4.9-8.047A27.313,27.313,0,0,0,256.406,62.136Z" transform="translate(0 0)"/><polygon class="cls-1" points="144.25 62.13 176.273 104.114 150.737 104.114 131.458 78.851 112.225 104.114 86.688 104.114 166.086 0 191.624 0 144.25 62.13"/><polygon class="cls-2" points="112.238 20.154 86.698 20.154 112.537 54.074 125.293 37.309 112.238 20.154"/><path class="cls-1" d="M19.4,119.838a.612.612,0,0,1,.612-.612h9.2a6.971,6.971,0,0,1,7.017,6.919,7.1,7.1,0,0,1-4.763,6.5l4.408,8.174a.609.609,0,0,1-.547.933H31.947a.551.551,0,0,1-.515-.289l-4.279-8.528H23.581v8.206a.633.633,0,0,1-.612.611h-2.96a.611.611,0,0,1-.612-.611Zm9.46,9.654a3.277,3.277,0,0,0,3.185-3.283,3.2,3.2,0,0,0-3.185-3.121H23.613v6.4Z" transform="translate(0 0)"/><path class="cls-1" d="M49.834,119.838a.612.612,0,0,1,.612-.612h13.1a.61.61,0,0,1,.61.612v2.638a.61.61,0,0,1-.61.612H54.018v5.277h7.948a.633.633,0,0,1,.61.612v2.671a.61.61,0,0,1-.61.611H54.018v5.632h9.525a.609.609,0,0,1,.61.611v2.639a.609.609,0,0,1-.61.611h-13.1a.611.611,0,0,1-.612-.611Z" transform="translate(0 0)"/><path class="cls-1" d="M72.9,140.916l10.01-21.657a.575.575,0,0,1,.546-.355h.322a.546.546,0,0,1,.547.355l9.911,21.657a.567.567,0,0,1-.547.836h-2.8a.925.925,0,0,1-.934-.643l-1.578-3.476H78.758l-1.576,3.476a.969.969,0,0,1-.932.643h-2.8A.568.568,0,0,1,72.9,140.916Zm13.9-6.855-3.218-7.08h-.1l-3.153,7.08Z" transform="translate(0 0)"/><path class="cls-1" d="M103.6,119.838a.61.61,0,0,1,.61-.612h2.962a.633.633,0,0,1,.61.612v18.053h8.206a.611.611,0,0,1,.612.611v2.639a.611.611,0,0,1-.612.611H104.209a.609.609,0,0,1-.61-.611Z" transform="translate(0 0)"/><path class="cls-1" d="M130.594,123.088h-4.923a.611.611,0,0,1-.612-.612v-2.638a.611.611,0,0,1,.612-.612h14.061a.612.612,0,0,1,.612.612v2.638a.612.612,0,0,1-.612.612h-4.923v18.053a.633.633,0,0,1-.612.611H131.2a.632.632,0,0,1-.61-.611Z" transform="translate(0 0)"/><path class="cls-1" d="M158.072,130.908l-7.337-10.748a.6.6,0,0,1,.513-.934h3.282a.64.64,0,0,1,.517.29l5.148,7.4,5.148-7.4a.642.642,0,0,1,.515-.29h3.314a.6.6,0,0,1,.517.934l-7.434,10.715v10.266a.633.633,0,0,1-.612.611h-2.96a.61.61,0,0,1-.611-.611Z" transform="translate(0 0)"/><path class="cls-1" d="M64.023,53.739q-.175-9.447-5.773-14.693T42.682,33.8q-9.447,0-14.956,5.422T20.991,53.739ZM20.991,69.484q1.05,9.443,7.346,14.692a22.993,22.993,0,0,0,15.22,5.249,25.06,25.06,0,0,0,13.207-3.237,36.6,36.6,0,0,0,9.357-8.134L81.165,89.425a42.629,42.629,0,0,1-16.443,12.943,48.457,48.457,0,0,1-19.066,3.849,50.391,50.391,0,0,1-17.845-3.149,42.8,42.8,0,0,1-14.517-8.922,42.258,42.258,0,0,1-9.708-13.9A44.382,44.382,0,0,1,0,62.136,44.386,44.386,0,0,1,3.586,44.031a42.266,42.266,0,0,1,9.708-13.907A42.777,42.777,0,0,1,27.811,21.2a50.414,50.414,0,0,1,17.845-3.149,40.827,40.827,0,0,1,16,3.06,34.368,34.368,0,0,1,12.421,8.834,40.89,40.89,0,0,1,8.045,14.256,60.5,60.5,0,0,1,2.888,19.506v5.773Z" transform="translate(0 0)"/><path class="cls-1" d="M256.407,62.136a27.33,27.33,0,0,0-1.661-9.445,23.782,23.782,0,0,0-4.9-8.049,24.814,24.814,0,0,0-36.209,0,23.7,23.7,0,0,0-4.9,8.049,27.684,27.684,0,0,0,0,18.89,23.637,23.637,0,0,0,4.9,8.047,24.811,24.811,0,0,0,36.209,0,23.716,23.716,0,0,0,4.9-8.047,27.309,27.309,0,0,0,1.661-9.445M186.786,20.154h19.943V32.748h.351a26.245,26.245,0,0,1,12.244-11.283,40.538,40.538,0,0,1,16.617-3.41,42.311,42.311,0,0,1,17.317,3.41,38.841,38.841,0,0,1,13.12,9.359A40.111,40.111,0,0,1,274.6,44.817a52.419,52.419,0,0,1,2.8,17.319,49.574,49.574,0,0,1-2.974,17.317,43.063,43.063,0,0,1-8.309,13.993,38.309,38.309,0,0,1-12.857,9.361,39.364,39.364,0,0,1-16.442,3.41,40.8,40.8,0,0,1-10.409-1.225,35.808,35.808,0,0,1-8.133-3.149,32.013,32.013,0,0,1-5.948-4.11,29.767,29.767,0,0,1-4.024-4.287h-.524V144H186.786Z" transform="translate(0 0)"/><polygon class="cls-1" points="144.251 62.13 176.274 104.114 150.737 104.114 131.459 78.85 112.226 104.114 86.688 104.114 166.087 0 191.624 0 144.251 62.13"/><polygon class="cls-2" points="112.238 20.154 86.698 20.154 112.538 54.074 125.294 37.309 112.238 20.154"/><path class="cls-1" d="M28.858,129.492a3.277,3.277,0,0,0,3.184-3.282,3.2,3.2,0,0,0-3.184-3.121H23.613v6.4ZM19.4,119.838a.612.612,0,0,1,.612-.612h9.2a6.971,6.971,0,0,1,7.017,6.919,7.105,7.105,0,0,1-4.762,6.5l4.408,8.173a.609.609,0,0,1-.547.933H31.948a.549.549,0,0,1-.515-.289l-4.279-8.528H23.582v8.206a.634.634,0,0,1-.612.611H20.009a.611.611,0,0,1-.612-.611Z" transform="translate(0 0)"/><path class="cls-1" d="M49.834,119.838a.613.613,0,0,1,.612-.612h13.1a.611.611,0,0,1,.61.612v2.639a.611.611,0,0,1-.61.612H54.018v5.277h7.948a.631.631,0,0,1,.61.611v2.671a.611.611,0,0,1-.61.612H54.018v5.63h9.526a.611.611,0,0,1,.61.613v2.638a.61.61,0,0,1-.61.611h-13.1a.612.612,0,0,1-.612-.611Z" transform="translate(0 0)"/><path class="cls-1" d="M86.805,134.061l-3.219-7.08h-.1l-3.153,7.08Zm-13.9,6.855,10.009-21.658a.578.578,0,0,1,.547-.354h.322a.547.547,0,0,1,.547.354l9.911,21.658a.568.568,0,0,1-.548.836h-2.8a.925.925,0,0,1-.934-.644l-1.578-3.475H78.759l-1.576,3.475a.969.969,0,0,1-.932.644h-2.8a.568.568,0,0,1-.547-.836" transform="translate(0 0)"/><path class="cls-1" d="M103.6,119.838a.611.611,0,0,1,.611-.612h2.962a.634.634,0,0,1,.61.612V137.89h8.206a.612.612,0,0,1,.612.613v2.638a.611.611,0,0,1-.612.611H104.21a.61.61,0,0,1-.611-.611Z" transform="translate(0 0)"/><path class="cls-1" d="M130.594,123.088h-4.922a.611.611,0,0,1-.612-.612v-2.638a.611.611,0,0,1,.612-.612h14.061a.613.613,0,0,1,.612.612v2.638a.613.613,0,0,1-.612.612H134.81v18.053a.634.634,0,0,1-.612.612h-2.993a.634.634,0,0,1-.611-.612Z" transform="translate(0 0)"/><path class="cls-1" d="M158.073,130.908l-7.337-10.748a.6.6,0,0,1,.514-.934h3.281a.641.641,0,0,1,.517.29l5.148,7.4,5.148-7.4a.641.641,0,0,1,.515-.29h3.313a.6.6,0,0,1,.518.934l-7.434,10.716v10.265a.634.634,0,0,1-.612.611h-2.96a.61.61,0,0,1-.611-.611Z" transform="translate(0 0)"/><path class="cls-1" d="M270.943,0A6.454,6.454,0,1,0,277.4,6.454,6.454,6.454,0,0,0,270.943,0Zm0,11.724a5.271,5.271,0,1,1,5.27-5.27A5.27,5.27,0,0,1,270.943,11.724Z" transform="translate(0 0)"/><path class="cls-1" d="M271.079,7.312h-1.114V9.8h-1.4V3.011h2.521a2.846,2.846,0,0,1,1.855.536,1.848,1.848,0,0,1,.652,1.514,2.09,2.09,0,0,1-.3,1.158,2.053,2.053,0,0,1-.911.739l1.468,2.773V9.8h-1.5ZM269.965,6.18h1.128a1.155,1.155,0,0,0,.815-.268.957.957,0,0,0,.289-.739,1.024,1.024,0,0,0-.273-.755,1.132,1.132,0,0,0-.836-.275h-1.123Z" transform="translate(0 0)"/></svg>